<svg width="63" height="64" viewBox="0 0 63 64" fill="none" xmlns="http://www.w3.org/2000/svg">
<g clip-path="url(#clip0_70_114)">
<path d="M58.7826 16.6069C58.3444 15.8459 57.7383 15.182 57.0718 14.7963L33.9383 1.43993C32.6026 0.668461 30.4221 0.668461 29.0891 1.43993L5.95031 14.7963C4.6173 15.5651 3.52832 17.4544 3.52832 18.9947V45.7074C3.52832 46.4789 3.80122 47.3343 4.23943 48.0953C4.67765 48.8563 5.2838 49.5201 5.95031 49.9059L29.0838 63.2622C30.4168 64.0311 32.6 64.0311 33.933 63.2622L57.0665 49.9059C57.733 49.5201 58.3392 48.8563 58.7774 48.0953C59.2156 47.3343 59.4859 46.4789 59.4859 45.7074V18.9947C59.4938 18.2233 59.2235 17.3678 58.7826 16.6069ZM31.5084 51.008C21.2222 51.008 12.8541 42.6373 12.8541 32.3511C12.8541 22.0648 21.2248 13.6942 31.511 13.6942C34.7838 13.6996 37.9979 14.5634 40.8324 16.1994C43.6669 17.8354 46.0227 20.1863 47.6646 23.0174L39.5931 27.6882C38.7718 26.271 37.5934 25.094 36.1753 24.2744C34.7571 23.4548 33.1489 23.0214 31.511 23.0174C29.0362 23.0195 26.6634 24.0035 24.9134 25.7535C23.1635 27.5034 22.1794 29.8763 22.1773 32.3511C22.1808 34.8245 23.1651 37.1956 24.9143 38.9444C26.6636 40.6931 29.035 41.6767 31.5084 41.6795C33.1458 41.676 34.7537 41.2434 36.1717 40.4248C37.5898 39.6061 38.7685 38.4301 39.5904 37.014L47.6672 41.6848C46.0229 44.5149 43.6658 46.8648 40.8307 48.5006C37.9957 50.1363 34.7815 51.0008 31.5084 51.008ZM50.1653 33.3876H48.0923V35.4605H46.0193V33.3876H43.9463V31.3146H46.0193V29.2416H48.0923V31.3146H50.1653V33.3876ZM57.9377 33.3876H55.8647V35.4605H53.7917V33.3876H51.7187V31.3146H53.7917V29.2416H55.8647V31.3146H57.9377V33.3876Z" fill="#919190"/>
</g>
<defs>
<clipPath id="clip0_70_114">
<rect width="62.9769" height="62.9769" fill="white" transform="translate(0.0230713 0.862793)"/>
</clipPath>
</defs>
</svg>
