<svg width="70" height="69" viewBox="0 0 70 69" fill="none" xmlns="http://www.w3.org/2000/svg">
<g clip-path="url(#clip0_70_92)">
<path d="M11.5583 18.8917L34.6868 33.2531L57.8174 18.8498L34.6895 4.52868L11.5583 18.8917ZM34.6846 0.343761C34.3276 0.342833 33.9775 0.441938 33.674 0.62984L6.89412 17.2541C6.61571 17.428 6.38619 17.6699 6.22721 17.9571C6.06822 18.2443 5.98501 18.5672 5.98543 18.8955V49.8071C5.98543 50.4737 6.32894 51.0968 6.89412 51.4484L33.6734 68.0727L33.7099 68.0947C33.7244 68.1033 33.7394 68.1151 33.7539 68.1242C33.7851 68.1403 33.8183 68.1462 33.8495 68.1607C33.8811 68.1768 33.9128 68.1993 33.9445 68.2122C33.9944 68.2337 34.0475 68.2471 34.0985 68.2638C34.1286 68.2734 34.1559 68.2847 34.1865 68.2927C34.244 68.3088 34.3035 68.319 34.3621 68.3292C34.3873 68.3325 34.4104 68.34 34.4356 68.3437C34.5193 68.3555 34.6004 68.3588 34.6846 68.3588C34.8608 68.3588 35.036 68.334 35.2053 68.2852H35.2122C35.2771 68.2674 35.3407 68.2455 35.4028 68.2197L35.4613 68.1977C35.5139 68.1741 35.5633 68.1457 35.6153 68.1172C35.6432 68.1011 35.6754 68.0888 35.7028 68.0727L35.7543 68.0362L62.4826 51.4484C62.7614 51.2749 62.9912 51.0331 63.1502 50.7458C63.3093 50.4585 63.3923 50.1354 63.3913 49.8071L63.3398 34.311C63.3394 33.9686 63.2475 33.6325 63.0736 33.3375C62.8996 33.0425 62.65 32.7993 62.3506 32.6332C62.0508 32.4671 61.7119 32.3842 61.3692 32.3932C61.0265 32.4021 60.6925 32.5026 60.4017 32.6842L49.0015 39.7841L40.2162 34.34L62.4826 20.4777C62.7607 20.3053 62.9901 20.0647 63.1491 19.7788C63.3081 19.4929 63.3915 19.1711 63.3913 18.8439C63.3897 18.5163 63.3047 18.1944 63.1445 17.9086C62.9842 17.6228 62.7539 17.3824 62.4751 17.2101L35.7028 0.62984C35.3966 0.441645 35.044 0.342573 34.6846 0.343761ZM9.76673 22.3096L29.16 34.355L9.76619 46.3929L9.76673 22.3096ZM36.568 36.6114L45.3597 42.0555L33.6224 49.3605C33.345 49.533 33.1164 49.7738 32.9586 50.0598C32.8007 50.3459 32.7188 50.6676 32.7207 50.9943L32.7502 62.9732L11.5616 49.8071L32.8093 36.619L33.6734 37.1535C33.9771 37.3415 34.3274 37.4407 34.6846 37.4396C35.0443 37.4418 35.3974 37.3426 35.7034 37.1535L36.568 36.6114ZM59.5081 37.7762L59.537 48.7449L36.604 62.9882L36.5675 52.0571L59.5081 37.7762Z" fill="#919190"/>
</g>
<defs>
<clipPath id="clip0_70_92">
<rect width="68.702" height="68.702" fill="white" transform="translate(0.335297)"/>
</clipPath>
</defs>
</svg>
