<svg width="51" height="69" viewBox="0 0 51 69" fill="none" xmlns="http://www.w3.org/2000/svg">
<g clip-path="url(#clip0_70_101)">
<path fill-rule="evenodd" clip-rule="evenodd" d="M20.0411 62.5344H30.2509L28.8617 68.702H21.4121L20.0411 62.5344ZM17.2049 24.7904C17.7367 34.0665 20.0979 45.6583 24.1467 59.1123C24.8468 59.4629 25.5117 59.4495 26.1451 59.1123C30.1928 45.6628 32.554 34.0739 33.0865 24.7993C34.8385 -8.58775 15.4936 -7.64847 17.2049 24.7904ZM21.4302 0C21.4302 0 9.512 4.51072 10.37 21.86C11.2278 39.2091 23.0821 59.1029 23.0821 59.1029C15.7843 52.6282 4.97512 32.4574 4.76687 20.5878C4.69186 10.0638 11.8571 1.23851 21.4302 0ZM2.48132 22.1108C4.22342 39.7272 22.1916 59.7831 20.7571 58.4676C16.7559 55.0169 3.28347 38.7699 0.751825 23.5457C-1.77982 8.32167 11.0222 3.04865 11.0222 3.04865C3.59115 8.08684 1.64737 15.4598 2.48145 22.1109M29.9149 58.2747C30.8926 56.2378 39.344 38.2032 40.1522 21.8601C41.0099 4.51072 29.0918 0 29.0918 0C30.2029 0.0472326 32.6759 0.768604 35.0104 1.88125C37.3449 2.99391 45.5944 8.06269 45.755 20.5878C45.6181 28.3852 41.9344 39.4902 37.354 48.0283C41.9936 40.9131 47.1995 31.1883 48.097 22.1108C48.9311 15.4598 46.9874 8.08684 39.5563 3.04865C39.5563 3.04865 52.3582 8.32167 49.8267 23.5457C47.2948 38.7699 33.7982 55.033 29.7972 58.4837L29.9149 58.2747Z" fill="#919190"/>
</g>
<defs>
<clipPath id="clip0_70_101">
<rect width="49.809" height="68.702" fill="white" transform="translate(0.406433)"/>
</clipPath>
</defs>
</svg>
