<svg width="69" height="69" viewBox="0 0 69 69" fill="none" xmlns="http://www.w3.org/2000/svg">
<g clip-path="url(#clip0_70_95)">
<path d="M19.9992 10.8774C25.7974 -0.0465231 41.33 -0.619756 47.8906 9.84818C52.9746 17.9596 49.7418 28.0279 42.2787 32.3624L37.4317 23.9672C40.4008 22.243 41.6869 18.2376 39.6644 15.0105C37.0544 10.8461 30.8751 11.0741 28.5683 15.42C26.8615 18.6357 28.2142 22.3372 31.0251 23.9715L26.1746 32.3728C19.1091 28.2647 15.7086 18.9609 19.9992 10.8774ZM22.5917 50.2478C22.5859 53.5055 20.051 56.5407 16.4069 56.6752C11.4901 56.8566 8.20986 51.6229 10.5166 47.277C12.3002 43.9169 16.3979 43.0208 19.3718 44.7111L24.2314 36.294C16.7541 32.027 6.43528 34.2793 1.94751 42.7344C-3.85084 53.6583 4.39461 66.8141 16.7535 66.358C25.8965 66.0207 32.2617 58.419 32.3003 50.2478H22.5917ZM60.666 36.3311L55.8192 44.7261C58.7984 46.446 60.0918 50.4591 58.0661 53.6913C55.4559 57.8557 49.2766 57.6278 46.97 53.2818C45.2602 50.0606 46.6205 46.3522 49.441 44.7222L44.5905 36.3209C37.5153 40.4246 34.1074 49.7356 38.4009 57.8245C44.199 68.7484 59.7317 69.3216 66.2923 58.8536C71.3795 50.7369 68.1395 40.661 60.666 36.3311Z" fill="#919190"/>
</g>
<defs>
<clipPath id="clip0_70_95">
<rect width="68.702" height="68.702" fill="white" transform="translate(0.0540466)"/>
</clipPath>
</defs>
</svg>
