<svg width="64" height="64" viewBox="0 0 64 64" fill="none" xmlns="http://www.w3.org/2000/svg">
<mask id="mask0_70_106" style="mask-type:luminance" maskUnits="userSpaceOnUse" x="2" y="2" width="61" height="61">
<path d="M2.69409 2.771H62.1721V62.249H2.69409V2.771Z" fill="white"/>
</mask>
<g mask="url(#mask0_70_106)">
<path d="M32.22 2.771C17.1175 2.771 18.0592 9.35323 18.0592 9.35323L18.0766 16.1734H32.4851V18.2204H12.3593C12.3593 18.2204 2.69409 17.1176 2.69409 32.4332C2.69409 47.7487 11.1276 47.2035 11.1276 47.2035H16.1584V40.0984C16.1584 40.0984 15.8883 31.6228 24.4606 31.6228H38.7501C38.7501 31.6228 46.7797 31.7516 46.7797 23.8212V10.7064C46.7797 10.7064 47.999 2.771 32.22 2.771ZM24.2747 7.35576C25.7071 7.35576 26.8669 8.52053 26.8669 9.96288C26.8669 11.4027 25.7071 12.5675 24.2747 12.5675C22.8423 12.5675 21.6824 11.4027 21.6824 9.96288C21.6824 8.52053 22.8398 7.35576 24.2747 7.35576Z" fill="#919190"/>
<path d="M32.6531 62.2489C47.7506 62.2489 46.8089 55.6667 46.8089 55.6667L46.7915 48.8465H32.383V46.7995H52.5138C52.5138 46.7995 62.179 47.9023 62.179 32.5867C62.179 17.2712 53.743 17.8164 53.743 17.8164H48.7122V24.9215C48.7122 24.9215 48.9823 33.3971 40.41 33.3971H26.1229C26.1229 33.3971 18.0934 33.2683 18.0934 41.1987V54.3136C18.0934 54.3136 16.8741 62.2489 32.6531 62.2489ZM40.5984 57.6641C39.1635 57.6641 38.0061 56.4994 38.0061 55.057C38.0061 53.6172 39.1635 52.4524 40.5984 52.4524C42.0308 52.4524 43.1906 53.6172 43.1906 55.057C43.1906 56.4994 42.0308 57.6641 40.5984 57.6641Z" fill="#919190"/>
</g>
</svg>
