<svg width="56" height="69" viewBox="0 0 56 69" fill="none" xmlns="http://www.w3.org/2000/svg">
<g clip-path="url(#clip0_70_90)">
<path d="M50.376 31.1975L49.8796 30.3253C49.893 24.0992 47.008 21.5631 43.64 19.6309C44.6598 19.3625 45.7065 19.1478 46.0017 17.8596C47.7595 17.4168 48.1218 16.5983 48.2962 15.7395C48.7524 15.4309 50.2821 14.5721 50.1211 13.0961C50.9799 12.5057 51.4629 11.7409 51.208 10.6674C52.1339 9.66101 52.3754 8.82907 51.9863 8.06423C53.1 6.68213 52.6035 5.97096 52.1339 5.25979C52.9658 3.75693 52.2278 2.14673 49.9064 2.41509C48.9805 1.05984 46.9678 1.36846 46.6592 1.36846C46.3103 0.939075 45.8541 0.563361 44.4451 0.737799C43.5327 -0.0807209 42.5129 0.0668811 41.4528 0.456014C40.2049 -0.523527 39.373 0.268156 38.4203 0.563361C36.904 0.0802994 36.5551 0.737799 35.8171 1.01958C34.1667 0.670707 33.6568 1.42214 32.8651 2.21382L31.9392 2.2004C29.4434 3.64958 28.2089 6.60162 27.7661 8.1179C27.3233 6.60162 26.0888 3.64958 23.593 2.2004L22.6671 2.21382C21.8754 1.42214 21.3655 0.670707 19.7151 1.01958C18.9637 0.751218 18.6282 0.0802994 17.1119 0.563361C16.4947 0.375503 15.9177 -0.0270475 15.2468 -0.0136291C14.8979 -0.000210773 14.5088 0.120555 14.0794 0.456014C13.0193 0.0534627 11.9995 -0.0807209 11.0871 0.737799C9.67815 0.563361 9.20851 0.925656 8.87305 1.36846C8.56443 1.36846 6.55167 1.05984 5.6258 2.41509C3.30443 2.14673 2.57984 3.75693 3.41177 5.25979C2.94213 5.98438 2.44565 6.69555 3.55938 8.06423C3.17024 8.82907 3.41177 9.66101 4.33764 10.6674C4.09611 11.7409 4.57917 12.5057 5.42453 13.0961C5.26351 14.5721 6.7932 15.4309 7.24943 15.7395C7.42387 16.5983 7.78616 17.4034 9.54397 17.8596C9.83917 19.1344 10.8858 19.3625 11.9056 19.6309C8.53759 21.5631 5.65264 24.0992 5.66606 30.3253L5.16958 31.1975C1.30509 33.5054 -2.17026 40.9526 3.26417 46.9909C3.61305 48.8829 4.21688 50.2381 4.74019 51.741C5.53188 57.8061 10.7114 60.6374 12.0666 60.9728C14.066 62.4757 16.1995 63.898 19.071 64.891C21.7949 67.6552 24.747 68.7018 27.699 68.7018H27.8332C30.7987 68.7018 33.7373 67.6552 36.4478 64.891C39.3327 63.898 41.4528 62.4757 43.4522 60.9728C44.8208 60.6374 49.9869 57.8061 50.7786 51.741C51.3019 50.2381 51.9057 48.8829 52.2546 46.9909C57.7025 40.9392 54.2271 33.5054 50.376 31.1975ZM47.3972 30.124C47.1959 32.6333 34.1264 21.3887 36.3807 21.0129C42.5129 20.0066 47.5984 23.5893 47.3972 30.124ZM41.6273 42.6165C38.3398 44.7366 33.6031 43.3679 31.0536 39.5571C28.5041 35.7463 29.0945 30.9425 32.382 28.8224C35.6695 26.7023 40.4062 28.071 42.9557 31.8818C45.5052 35.6926 44.9148 40.4964 41.6273 42.6165ZM32.5162 3.93137C32.6236 4.49494 32.7577 4.84382 32.9053 4.95117C33.6299 4.1729 34.2203 3.38122 35.1596 2.62979C35.1596 3.07259 34.9315 3.54224 35.4951 3.89111C35.9916 3.2202 36.6759 2.61637 37.5749 2.10647C37.1455 2.8579 37.4944 3.08601 37.736 3.39464C38.4203 2.80423 39.0778 2.21382 40.3391 1.74418C39.9902 2.16015 39.5072 2.57612 40.0171 3.05918C40.7282 2.61637 41.4394 2.17356 43.1167 1.86494C42.741 2.28091 41.9493 2.7103 42.4324 3.12627C43.318 2.79081 44.3109 2.53586 45.3978 2.40168C44.8745 2.83106 44.4451 3.24703 44.8745 3.58249C45.8272 3.28729 47.1422 2.89816 48.417 3.23362L47.6119 4.05214C47.5179 4.15948 49.5039 4.13265 50.8189 4.15948C50.3358 4.8304 49.8527 5.46106 49.5709 6.60162C49.7051 6.73581 50.3492 6.6553 50.9665 6.60162C50.3358 7.93004 49.2489 8.25208 48.994 8.82907C49.3831 9.12428 49.9064 9.04377 50.4968 8.84249C50.0406 9.76836 49.1013 10.4124 48.3499 11.1639C48.5377 11.2981 48.8732 11.3786 49.6515 11.2846C48.9537 12.0226 48.1218 12.6936 47.1288 13.2974C47.3032 13.4987 47.9071 13.4987 48.4706 13.5121C47.5716 14.3843 46.4176 14.8405 45.3307 15.4175C45.8675 15.7798 46.2566 15.6993 46.6726 15.6993C45.9077 16.3299 44.6062 16.652 43.3985 17.0411C43.6266 17.4034 43.8547 17.4973 44.3512 17.5913C43.0765 18.3024 41.2381 17.9804 40.7282 18.3427C40.849 18.705 41.2113 18.9331 41.6273 19.121C39.5608 19.2417 33.9386 19.0404 32.8517 14.7868C34.9583 12.4654 38.8094 9.75494 45.4247 6.38693C40.272 8.10448 35.6293 10.4124 31.7379 13.5658C27.1354 11.4322 30.2888 6.06489 32.5162 3.93137ZM27.9003 19.3088C31.1475 19.2686 35.1596 21.6973 35.1462 23.965C35.1328 25.9777 32.3284 27.6014 27.9271 27.5745C23.6198 27.5209 20.7215 25.5349 20.7349 23.5759C20.7349 21.9791 24.2505 19.2149 27.9003 19.3088ZM11.3957 17.5913C11.8922 17.4973 12.1203 17.39 12.3484 17.0411C11.1408 16.6654 9.83917 16.3299 9.07432 15.6993C9.49029 15.6993 9.87943 15.7932 10.4162 15.4175C9.32927 14.8405 8.17529 14.3843 7.27626 13.5121C7.83983 13.4987 8.44366 13.5121 8.6181 13.2974C7.62514 12.6936 6.7932 12.0226 6.09545 11.2846C6.87371 11.3786 7.20917 11.2981 7.39703 11.1639C6.6456 10.4124 5.6929 9.76836 5.25009 8.84249C5.82708 9.04377 6.36381 9.11086 6.75295 8.82907C6.498 8.2655 5.41111 7.93004 4.78045 6.60162C5.39769 6.6553 6.04177 6.73581 6.17596 6.60162C5.89417 5.46106 5.39769 4.81698 4.92805 4.15948C6.24305 4.14606 8.22897 4.15948 8.13504 4.05214L7.32994 3.23362C8.60468 2.89816 9.91968 3.28729 10.8724 3.58249C11.3018 3.24703 10.859 2.83106 10.3491 2.40168C11.436 2.54928 12.4155 2.79081 13.3145 3.12627C13.7842 2.7103 13.0059 2.28091 12.6302 1.86494C14.3075 2.17356 15.0187 2.61637 15.7298 3.05918C16.2397 2.57612 15.7567 2.16015 15.4078 1.74418C16.6691 2.2004 17.3266 2.80423 18.011 3.39464C18.2391 3.08601 18.6014 2.8579 18.172 2.10647C19.071 2.61637 19.7553 3.2202 20.2518 3.89111C20.802 3.54224 20.5873 3.05918 20.5873 2.62979C21.5266 3.38122 22.117 4.1729 22.8416 4.95117C22.9892 4.84382 23.1099 4.49494 23.2307 3.93137C25.4581 6.06489 28.6115 11.4322 24.0358 13.5658C20.1445 10.4124 15.5017 8.10448 10.3491 6.38693C16.9643 9.74152 20.8154 12.4654 22.9221 14.7868C21.8486 19.0539 16.2129 19.2417 14.1465 19.121C14.5624 18.9331 14.9247 18.6916 15.0455 18.3427C14.5088 17.967 12.6839 18.289 11.3957 17.5913ZM19.4601 20.8251C21.7144 21.2008 8.64494 32.432 8.44366 29.9362C8.24239 23.4014 13.3414 19.8053 19.4601 20.8251ZM5.58555 45.8906C2.4054 43.3679 1.3856 36.0013 7.27626 32.7003C10.8321 31.7611 8.48392 47.1653 5.58555 45.8906ZM17.7963 59.0674C16.0116 60.1275 11.6507 59.6981 8.56443 55.3237C6.48458 51.6471 6.75295 47.9168 8.21555 46.8165C10.4027 45.5015 13.7842 47.2727 16.3873 50.2516C18.655 52.9352 19.6882 57.6719 17.7963 59.0674ZM14.2538 43.0056C10.9663 40.8855 10.3759 36.0818 12.9254 32.271C15.4749 28.4601 20.2116 27.0915 23.4991 29.2116C26.7866 31.3317 27.377 36.1354 24.8275 39.9463C22.2646 43.7571 17.5279 45.1258 14.2538 43.0056ZM27.9674 66.5549C24.0224 66.7159 20.1579 63.3747 20.2116 62.2207C20.1579 60.5166 25.0153 59.1882 28.1687 59.2687C31.3488 59.1345 35.6293 60.2751 35.6427 61.8048C35.7098 63.2808 31.7782 66.622 27.9674 66.5549ZM35.8708 49.7953C35.8976 53.7806 32.3552 57.0144 27.9808 57.0413C23.6064 57.0681 20.0371 53.8477 20.0103 49.8759V49.7953C19.9835 45.8101 23.5259 42.5763 27.9003 42.5494C32.2747 42.5226 35.844 45.743 35.8708 49.7148V49.7953ZM46.9007 55.525C43.5058 60.1677 38.9033 60.3422 37.1992 59.054C35.4146 57.3901 36.7698 52.2241 39.2254 49.3928C42.0298 46.2663 45.0355 44.2267 47.1288 45.8235C48.5377 47.2056 49.3697 52.4119 46.9007 55.525ZM49.9735 45.7027C47.0886 46.9641 44.7403 31.5732 48.2828 32.5125C54.1734 35.8268 53.1537 43.1935 49.9735 45.7027Z" fill="#919190"/>
</g>
<defs>
<clipPath id="clip0_70_90">
<rect width="54.6181" height="68.702" fill="white" transform="translate(0.460266)"/>
</clipPath>
</defs>
</svg>
