<svg width="67" height="69" viewBox="0 0 67 69" fill="none" xmlns="http://www.w3.org/2000/svg">
<path d="M33.1019 15.921C34.2009 15.921 35.2549 15.4844 36.032 14.7073C36.8092 13.9301 37.2457 12.8761 37.2457 11.7771C37.2457 10.6781 36.8092 9.62412 36.032 8.847C35.2549 8.06988 34.2009 7.6333 33.1019 7.6333C32.0029 7.6333 30.9489 8.06988 30.1718 8.847C29.3946 9.62412 28.9581 10.6781 28.9581 11.7771C28.9581 12.8761 29.3946 13.9301 30.1718 14.7073C30.9489 15.4844 32.0029 15.921 33.1019 15.921ZM55.1186 15.921C55.6628 15.921 56.2016 15.8138 56.7044 15.6055C57.2071 15.3973 57.664 15.0921 58.0488 14.7073C58.4335 14.3225 58.7388 13.8657 58.947 13.3629C59.1553 12.8602 59.2625 12.3213 59.2625 11.7771C59.2625 11.233 59.1553 10.6941 58.947 10.1914C58.7388 9.68861 58.4335 9.23179 58.0488 8.847C57.664 8.46221 57.2071 8.15698 56.7044 7.94873C56.2016 7.74048 55.6628 7.6333 55.1186 7.6333C54.0196 7.6333 52.9656 8.06988 52.1885 8.847C51.4114 9.62412 50.9748 10.6781 50.9748 11.7771C50.9748 12.8761 51.4114 13.9301 52.1885 14.7073C52.9656 15.4844 54.0196 15.921 55.1186 15.921ZM11.0852 15.921C11.6294 15.921 12.1682 15.8138 12.671 15.6055C13.1737 15.3973 13.6305 15.0921 14.0153 14.7073C14.4001 14.3225 14.7053 13.8657 14.9136 13.3629C15.1218 12.8602 15.229 12.3213 15.229 11.7771C15.229 11.233 15.1218 10.6941 14.9136 10.1914C14.7053 9.68861 14.4001 9.23179 14.0153 8.847C13.6305 8.46221 13.1737 8.15698 12.671 7.94873C12.1682 7.74048 11.6294 7.6333 11.0852 7.6333C9.98617 7.6333 8.93216 8.06988 8.15504 8.847C7.37793 9.62412 6.94135 10.6781 6.94135 11.7771C6.94135 12.8761 7.37793 13.9301 8.15504 14.7073C8.93216 15.4844 9.98617 15.921 11.0852 15.921ZM33.1019 37.9331C34.2009 37.9331 35.2549 37.4966 36.032 36.7195C36.8092 35.9423 37.2457 34.8883 37.2457 33.7893C37.2457 32.6903 36.8092 31.6363 36.032 30.8592C35.2549 30.0821 34.2009 29.6455 33.1019 29.6455C32.0029 29.6455 30.9489 30.0821 30.1718 30.8592C29.3946 31.6363 28.9581 32.6903 28.9581 33.7893C28.9581 34.8883 29.3946 35.9423 30.1718 36.7195C30.9489 37.4966 32.0029 37.9331 33.1019 37.9331ZM55.1186 37.9331C56.2176 37.9331 57.2716 37.4966 58.0488 36.7195C58.8259 35.9423 59.2625 34.8883 59.2625 33.7893C59.2625 32.6903 58.8259 31.6363 58.0488 30.8592C57.2716 30.0821 56.2176 29.6455 55.1186 29.6455C54.0196 29.6455 52.9656 30.0821 52.1885 30.8592C51.4114 31.6363 50.9748 32.6903 50.9748 33.7893C50.9748 34.8883 51.4114 35.9423 52.1885 36.7195C52.9656 37.4966 54.0196 37.9331 55.1186 37.9331ZM11.0852 37.9331C12.1842 37.9331 13.2382 37.4966 14.0153 36.7195C14.7924 35.9423 15.229 34.8883 15.229 33.7893C15.229 32.6903 14.7924 31.6363 14.0153 30.8592C13.2382 30.0821 12.1842 29.6455 11.0852 29.6455C9.98617 29.6455 8.93216 30.0821 8.15504 30.8592C7.37793 31.6363 6.94135 32.6903 6.94135 33.7893C6.94135 34.8883 7.37793 35.9423 8.15504 36.7195C8.93216 37.4966 9.98617 37.9331 11.0852 37.9331ZM33.1019 61.0683C34.2009 61.0683 35.2549 60.6317 36.032 59.8546C36.8092 59.0775 37.2457 58.0235 37.2457 56.9245C37.2457 55.8255 36.8092 54.7715 36.032 53.9943C35.2549 53.2172 34.2009 52.7806 33.1019 52.7806C32.0029 52.7806 30.9489 53.2172 30.1718 53.9943C29.3946 54.7715 28.9581 55.8255 28.9581 56.9245C28.9581 58.0235 29.3946 59.0775 30.1718 59.8546C30.9489 60.6317 32.0029 61.0683 33.1019 61.0683ZM55.1186 61.0683C56.2176 61.0683 57.2716 60.6317 58.0488 59.8546C58.8259 59.0775 59.2625 58.0235 59.2625 56.9245C59.2625 55.8255 58.8259 54.7715 58.0488 53.9943C57.2716 53.2172 56.2176 52.7806 55.1186 52.7806C54.0196 52.7806 52.9656 53.2172 52.1885 53.9943C51.4114 54.7715 50.9748 55.8255 50.9748 56.9245C50.9748 58.0235 51.4114 59.0775 52.1885 59.8546C52.9656 60.6317 54.0196 61.0683 55.1186 61.0683ZM11.0852 61.0683C12.1842 61.0683 13.2382 60.6317 14.0153 59.8546C14.7924 59.0775 15.229 58.0235 15.229 56.9245C15.229 55.8255 14.7924 54.7715 14.0153 53.9943C13.2382 53.2172 12.1842 52.7806 11.0852 52.7806C9.98617 52.7806 8.93216 53.2172 8.15504 53.9943C7.37793 54.7715 6.94135 55.8255 6.94135 56.9245C6.94135 58.0235 7.37793 59.0775 8.15504 59.8546C8.93216 60.6317 9.98617 61.0683 11.0852 61.0683Z" fill="#919190" stroke="#919190" stroke-width="6.80805" stroke-linecap="round" stroke-linejoin="round"/>
</svg>
