<svg width="123" height="69" viewBox="0 0 123 69" fill="none" xmlns="http://www.w3.org/2000/svg">
<path d="M33.1154 15.921C34.2144 15.921 35.2684 15.4844 36.0455 14.7073C36.8226 13.9301 37.2592 12.8761 37.2592 11.7771C37.2592 10.6781 36.8226 9.62412 36.0455 8.847C35.2684 8.06988 34.2144 7.6333 33.1154 7.6333C32.0163 7.6333 30.9623 8.06988 30.1852 8.847C29.4081 9.62412 28.9715 10.6781 28.9715 11.7771C28.9715 12.8761 29.4081 13.9301 30.1852 14.7073C30.9623 15.4844 32.0163 15.921 33.1154 15.921ZM55.1321 15.921C55.6763 15.921 56.2151 15.8138 56.7178 15.6055C57.2206 15.3973 57.6774 15.0921 58.0622 14.7073C58.447 14.3225 58.7522 13.8657 58.9605 13.3629C59.1687 12.8602 59.2759 12.3213 59.2759 11.7771C59.2759 11.233 59.1687 10.6941 58.9605 10.1914C58.7522 9.68861 58.447 9.23179 58.0622 8.847C57.6774 8.46221 57.2206 8.15698 56.7178 7.94873C56.2151 7.74048 55.6763 7.6333 55.1321 7.6333C54.0331 7.6333 52.9791 8.06988 52.2019 8.847C51.4248 9.62412 50.9882 10.6781 50.9882 11.7771C50.9882 12.8761 51.4248 13.9301 52.2019 14.7073C52.9791 15.4844 54.0331 15.921 55.1321 15.921ZM11.0986 15.921C11.6428 15.921 12.1817 15.8138 12.6844 15.6055C13.1872 15.3973 13.644 15.0921 14.0288 14.7073C14.4136 14.3225 14.7188 13.8657 14.927 13.3629C15.1353 12.8602 15.2425 12.3213 15.2425 11.7771C15.2425 11.233 15.1353 10.6941 14.927 10.1914C14.7188 9.68861 14.4136 9.23179 14.0288 8.847C13.644 8.46221 13.1872 8.15698 12.6844 7.94873C12.1817 7.74048 11.6428 7.6333 11.0986 7.6333C9.99962 7.6333 8.94562 8.06988 8.1685 8.847C7.39138 9.62412 6.9548 10.6781 6.9548 11.7771C6.9548 12.8761 7.39138 13.9301 8.1685 14.7073C8.94562 15.4844 9.99962 15.921 11.0986 15.921ZM33.1154 37.9331C34.2144 37.9331 35.2684 37.4966 36.0455 36.7195C36.8226 35.9423 37.2592 34.8883 37.2592 33.7893C37.2592 32.6903 36.8226 31.6363 36.0455 30.8592C35.2684 30.0821 34.2144 29.6455 33.1154 29.6455C32.0163 29.6455 30.9623 30.0821 30.1852 30.8592C29.4081 31.6363 28.9715 32.6903 28.9715 33.7893C28.9715 34.8883 29.4081 35.9423 30.1852 36.7195C30.9623 37.4966 32.0163 37.9331 33.1154 37.9331ZM55.1321 37.9331C56.2311 37.9331 57.2851 37.4966 58.0622 36.7195C58.8393 35.9423 59.2759 34.8883 59.2759 33.7893C59.2759 32.6903 58.8393 31.6363 58.0622 30.8592C57.2851 30.0821 56.2311 29.6455 55.1321 29.6455C54.0331 29.6455 52.9791 30.0821 52.2019 30.8592C51.4248 31.6363 50.9882 32.6903 50.9882 33.7893C50.9882 34.8883 51.4248 35.9423 52.2019 36.7195C52.9791 37.4966 54.0331 37.9331 55.1321 37.9331ZM11.0986 37.9331C12.1977 37.9331 13.2517 37.4966 14.0288 36.7195C14.8059 35.9423 15.2425 34.8883 15.2425 33.7893C15.2425 32.6903 14.8059 31.6363 14.0288 30.8592C13.2517 30.0821 12.1977 29.6455 11.0986 29.6455C9.99962 29.6455 8.94562 30.0821 8.1685 30.8592C7.39138 31.6363 6.9548 32.6903 6.9548 33.7893C6.9548 34.8883 7.39138 35.9423 8.1685 36.7195C8.94562 37.4966 9.99962 37.9331 11.0986 37.9331ZM33.1154 61.0683C34.2144 61.0683 35.2684 60.6317 36.0455 59.8546C36.8226 59.0775 37.2592 58.0235 37.2592 56.9245C37.2592 55.8255 36.8226 54.7715 36.0455 53.9943C35.2684 53.2172 34.2144 52.7806 33.1154 52.7806C32.0163 52.7806 30.9623 53.2172 30.1852 53.9943C29.4081 54.7715 28.9715 55.8255 28.9715 56.9245C28.9715 58.0235 29.4081 59.0775 30.1852 59.8546C30.9623 60.6317 32.0163 61.0683 33.1154 61.0683ZM55.1321 61.0683C56.2311 61.0683 57.2851 60.6317 58.0622 59.8546C58.8393 59.0775 59.2759 58.0235 59.2759 56.9245C59.2759 55.8255 58.8393 54.7715 58.0622 53.9943C57.2851 53.2172 56.2311 52.7806 55.1321 52.7806C54.0331 52.7806 52.9791 53.2172 52.2019 53.9943C51.4248 54.7715 50.9882 55.8255 50.9882 56.9245C50.9882 58.0235 51.4248 59.0775 52.2019 59.8546C52.9791 60.6317 54.0331 61.0683 55.1321 61.0683ZM11.0986 61.0683C12.1977 61.0683 13.2517 60.6317 14.0288 59.8546C14.8059 59.0775 15.2425 58.0235 15.2425 56.9245C15.2425 55.8255 14.8059 54.7715 14.0288 53.9943C13.2517 53.2172 12.1977 52.7806 11.0986 52.7806C9.99962 52.7806 8.94562 53.2172 8.1685 53.9943C7.39138 54.7715 6.9548 55.8255 6.9548 56.9245C6.9548 58.0235 7.39138 59.0775 8.1685 59.8546C8.94562 60.6317 9.99962 61.0683 11.0986 61.0683Z" fill="#919190" stroke="#919190" stroke-width="6.80805" stroke-linecap="round" stroke-linejoin="round"/>
<path d="M115.424 60.9253L78.9634 61V55.3964L96.3718 40.3788C105.113 32.8327 107.579 29.1717 107.579 23.4186C107.579 16.6196 103.694 12.5851 97.1937 12.5851C90.5441 12.5851 86.2107 17.4415 86.0612 25.1371H78.7392C78.9634 13.5563 86.2854 6.01018 97.2684 6.01018C108.102 6.01018 115.05 12.5851 115.05 22.9704C115.05 30.6659 111.24 36.1201 101.677 44.4134L90.4694 54.1263H115.424V60.9253Z" fill="#919190"/>
</svg>
